<svg xmlns="http://www.w3.org/2000/svg" width="16" height="20" viewBox="0 0 16 20" fill="none"><path fill-rule="evenodd" clip-rule="evenodd" d="M14.7482 12.0452C14.7482 15.7478 11.7466 18.7494 8.04401 18.7494C4.3414 18.7494 1.33984 15.7478 1.33984 12.0452C1.33984 8.34262 4.3414 5.34106 8.04401 5.34106C11.7466 5.34106 14.7482 8.34262 14.7482 12.0452ZM10.746 10.0136C10.9424 10.21 10.9424 10.5284 10.746 10.7247L7.39391 14.0768C7.19754 14.2732 6.87923 14.2732 6.68284 14.0768L5.34201 12.736C5.14565 12.5396 5.14565 12.2213 5.34201 12.0249C5.53837 11.8286 5.85673 11.8286 6.05309 12.0249L7.03838 13.0102L8.53663 11.5119L10.0349 10.0136C10.2313 9.81729 10.5496 9.81729 10.746 10.0136Z" fill="#FF5001"></path><path fill-rule="evenodd" clip-rule="evenodd" d="M10.7505 10.0137C10.9468 10.2101 10.9468 10.5284 10.7505 10.7248L7.39838 14.0769C7.20202 14.2732 6.88371 14.2732 6.68732 14.0769L5.34649 12.736C5.15013 12.5397 5.15013 12.2214 5.34649 12.025C5.54285 11.8286 5.86121 11.8286 6.05757 12.025L7.04286 13.0102L8.54111 11.512L10.0394 10.0137C10.2358 9.81737 10.5541 9.81737 10.7505 10.0137Z" fill="white"></path></svg>