<svg xmlns="http://www.w3.org/2000/svg" width="120" height="48" viewBox="0 0 120 48" fill="none"><path d="M24 0.5H96C108.979 0.5 119.5 11.0213 119.5 24C119.5 36.9787 108.979 47.5 96 47.5H24C11.0213 47.5 0.5 36.9787 0.5 24C0.5 11.0213 11.0213 0.5 24 0.5Z" fill="white"></path><path d="M24 0.5H96C108.979 0.5 119.5 11.0213 119.5 24C119.5 36.9787 108.979 47.5 96 47.5H24C11.0213 47.5 0.5 36.9787 0.5 24C0.5 11.0213 11.0213 0.5 24 0.5Z" stroke="#0082FB"></path><path d="M32.1705 10.5747L32.125 12.8064H32.1477C33.6051 12.8064 34.7438 13.9678 37.2261 18.1125L37.3854 18.363V18.3858L38.7746 16.3134V16.2907C38.4558 15.7669 38.1369 15.2659 37.8409 14.8332C37.4993 14.3094 37.1577 13.854 36.8389 13.4441C35.1765 11.3717 33.8101 10.5747 32.1705 10.5747Z" fill="url(#paint0_linear_5726_46506)"></path><path d="M32.1485 10.5747C30.5088 10.5747 29.0515 11.645 28.0039 13.2619C28.0039 13.2619 28.0039 13.2619 28.0039 13.2847L29.9396 14.3322C29.9396 14.3322 29.9396 14.3322 29.9396 14.3094C30.5545 13.3985 31.306 12.8064 32.1258 12.7837H32.1485V10.5747Z" fill="url(#paint1_linear_5726_46506)"></path><path d="M28.0037 13.2617C28.0037 13.2845 28.0037 13.2845 28.0037 13.2617C27.2977 14.3548 26.7967 15.6529 26.5234 17.0875V17.1103L28.6869 17.6113V17.5885C28.9146 16.336 29.3473 15.1746 29.9394 14.3093C29.9394 14.3093 29.9394 14.3093 29.9394 14.2865L28.0037 13.2617Z" fill="url(#paint2_linear_5726_46506)"></path><path d="M28.6646 17.6123L26.5012 17.1113V17.1341C26.3418 17.9084 26.2734 18.7054 26.2734 19.5025V19.5252L28.4824 19.7302V19.7074C28.4824 19.6619 28.4824 19.6163 28.4824 19.5708C28.5052 18.8876 28.5507 18.25 28.6646 17.6123Z" fill="url(#paint3_linear_5726_46506)"></path><path d="M28.5742 20.3899C28.5286 20.1622 28.5058 19.9345 28.5058 19.7067V19.684L26.2969 19.479V19.5018C26.2969 19.9572 26.3424 20.4355 26.4107 20.8909V20.9137L28.5742 20.3899Z" fill="url(#paint4_linear_5726_46506)"></path><path d="M29.0745 21.5286C28.824 21.2553 28.6647 20.891 28.5736 20.39V20.3672L26.4102 20.8682V20.891C26.5696 21.7563 26.8884 22.4623 27.3439 23.0088C27.3439 23.0088 27.3438 23.0088 27.3665 23.0316L29.0745 21.5286C29.0745 21.5514 29.0745 21.5514 29.0745 21.5286Z" fill="url(#paint5_linear_5726_46506)"></path><path d="M35.4964 15.3799C34.1983 17.3839 33.4012 18.6364 33.4012 18.6364C31.6705 21.3463 31.0556 21.9612 30.0992 21.9612C29.6893 21.9612 29.3477 21.8246 29.0972 21.5513C29.0972 21.5513 29.0972 21.5513 29.0744 21.5285L27.3438 23.0088C27.3438 23.0088 27.3437 23.0088 27.3664 23.0315C28.0041 23.7603 28.8922 24.1702 30.0081 24.1702C31.6933 24.1702 32.9003 23.3731 35.0409 19.6384C35.0409 19.6384 35.9291 18.0671 36.5439 16.974C36.1568 16.3819 35.8152 15.8353 35.4964 15.3799Z" fill="#0082FB"></path><path d="M37.8185 12.2368C37.7957 12.2368 37.7957 12.2368 37.8185 12.2368C37.4541 12.624 37.1125 13.0339 36.8164 13.4438C37.1352 13.8537 37.4769 14.3091 37.8185 14.8329C38.2284 14.1953 38.6155 13.6943 38.9798 13.3071C38.9798 13.3071 38.9798 13.3071 39.0026 13.2844L37.8185 12.2368Z" fill="url(#paint6_linear_5726_46506)"></path><path d="M44.1498 12.0322C43.2389 11.1212 42.1458 10.5747 40.9844 10.5747C39.7547 10.5747 38.7299 11.2351 37.7962 12.2371C37.7962 12.2371 37.7962 12.2371 37.7734 12.2599L38.9577 13.3074C38.9577 13.3074 38.9576 13.3074 38.9803 13.2847C39.5952 12.647 40.1874 12.3282 40.8478 12.3282C41.5537 12.3282 42.2141 12.6698 42.7834 13.2391C42.7834 13.2391 42.7835 13.2391 42.8062 13.2619L44.1498 12.0322Z" fill="#0082FB"></path><path d="M46.7697 19.1824C46.7242 16.2447 45.6767 13.6031 44.1509 12.0545C44.1509 12.0545 44.1509 12.0545 44.1281 12.0317L42.7617 13.2387C42.7617 13.2387 42.7617 13.2387 42.7845 13.2615C43.9459 14.4457 44.7202 16.6546 44.8113 19.1824V19.2052L46.7697 19.1824Z" fill="url(#paint7_linear_5726_46506)"></path><path d="M46.7695 19.2049L44.811 19.1821V19.2049C44.811 19.3188 44.811 19.4554 44.811 19.5693C44.811 20.2525 44.6971 20.8218 44.4922 21.2317V21.2544L45.9496 22.7802C45.9496 22.7802 45.9496 22.7802 45.9496 22.7575C46.4734 21.9376 46.7467 20.799 46.7467 19.4326C46.7694 19.3415 46.7695 19.2732 46.7695 19.2049Z" fill="url(#paint8_linear_5726_46506)"></path><path d="M44.5158 21.2329C44.3336 21.5973 44.0603 21.825 43.7188 21.9161L44.3791 24.0112C44.4702 23.9884 44.5613 23.9429 44.6297 23.9201C44.6524 23.9201 44.6752 23.8973 44.6979 23.8745C44.7207 23.8745 44.7208 23.8518 44.7435 23.8518C45.1762 23.6241 45.5633 23.3052 45.8594 22.8953C45.8821 22.8725 45.905 22.8498 45.905 22.827C45.9277 22.8042 45.9277 22.7815 45.9504 22.7815C45.9504 22.7815 45.9504 22.7815 45.9504 22.7587L44.5158 21.2329Z" fill="url(#paint9_linear_5726_46506)"></path><path d="M43.2864 21.961C43.0814 21.961 42.8764 21.9155 42.6715 21.8472L41.9883 23.9878C42.3754 24.1244 42.7853 24.17 43.2408 24.17C43.6279 24.17 44.0151 24.1017 44.4022 23.9878L43.7418 21.8927C43.6052 21.9383 43.4458 21.961 43.2864 21.961Z" fill="url(#paint10_linear_5726_46506)"></path><path d="M41.9424 21.2329C41.9196 21.2329 41.9196 21.2329 41.9424 21.2329L40.3711 22.8498C40.3711 22.8498 40.3711 22.8498 40.3939 22.8726C40.9404 23.4419 41.4642 23.8062 42.0563 24.0112L42.7394 21.8705C42.4434 21.7567 42.2157 21.5517 41.9424 21.2329Z" fill="url(#paint11_linear_5726_46506)"></path><path d="M41.9186 21.209C41.4404 20.6624 40.871 19.7515 39.9601 18.294L38.7759 16.3128V16.29L37.3867 18.3624V18.3851L38.2294 19.7971C39.0492 21.1634 39.7096 22.1654 40.37 22.8486C40.37 22.8486 40.37 22.8486 40.3928 22.8714L41.9186 21.209C41.9186 21.2317 41.9186 21.2317 41.9186 21.209Z" fill="url(#paint12_linear_5726_46506)"></path><path d="M26.4336 31.1621H28.9613C29.6672 31.1621 30.191 31.2988 30.5554 31.5948C30.9197 31.8681 31.102 32.2552 31.102 32.7562C31.102 33.4394 30.7831 33.8948 30.1227 34.1226C30.9881 34.3503 31.398 34.8285 31.398 35.6256C31.398 36.1494 31.2158 36.5593 30.8287 36.8553C30.4416 37.1513 29.895 37.3108 29.189 37.3108H26.4563V31.1621H26.4336ZM28.8247 33.781C29.6446 33.781 30.0544 33.4849 30.0544 32.8928C30.0544 32.5968 29.9633 32.3691 29.7583 32.2324C29.5761 32.0958 29.2801 32.0275 28.8702 32.0275H27.4128V33.781H28.8247ZM29.1207 36.4226C29.9406 36.4226 30.3504 36.1038 30.3504 35.4889C30.3504 35.2157 30.2594 34.9879 30.0544 34.8513C29.8723 34.7147 29.5307 34.6236 29.0525 34.6236H27.4128V36.3998L29.1207 36.4226Z" fill="#1C2B33"></path><path d="M36.1355 37.3105H35.2019V36.6501C34.8604 37.1739 34.3593 37.4244 33.7444 37.4244C33.1979 37.4244 32.788 37.265 32.5147 36.9234C32.2186 36.5818 32.082 36.1036 32.082 35.4659V32.7332H33.0385V35.3521C33.0385 35.7848 33.1069 36.0808 33.2663 36.2858C33.4257 36.4907 33.6533 36.5818 33.9721 36.5818C34.2454 36.5818 34.4959 36.5135 34.7009 36.3541C34.9059 36.2175 35.0881 36.0125 35.2019 35.7392V32.7104H36.1583V37.3105H36.1355Z" fill="#1C2B33"></path><path d="M40.3026 37.0374C39.961 37.2879 39.5056 37.4245 38.9363 37.4245C38.458 37.4245 38.0254 37.3334 37.6838 37.174C37.3194 37.0146 37.0689 36.7869 36.8867 36.4908L37.5243 35.9215C37.6609 36.1265 37.8431 36.2859 38.0708 36.3997C38.2986 36.5136 38.5947 36.5819 38.9135 36.5819C39.5283 36.5819 39.8244 36.3997 39.8244 36.0354C39.8244 35.876 39.7788 35.7621 39.6649 35.671C39.5738 35.5799 39.3917 35.5116 39.164 35.466L38.2759 35.3066C37.866 35.2383 37.5471 35.0789 37.3194 34.874C37.0917 34.669 37.0006 34.3729 37.0006 34.0086C37.0006 33.5759 37.1599 33.2343 37.5015 32.9838C37.8431 32.7333 38.2986 32.5967 38.8679 32.5967C39.2778 32.5967 39.665 32.6878 39.9838 32.8472C40.3027 33.0066 40.5531 33.2343 40.7353 33.5076L40.0749 34.0086C39.961 33.8264 39.8016 33.6898 39.5739 33.5759C39.3461 33.462 39.0957 33.4165 38.7996 33.4165C38.5263 33.4165 38.3214 33.462 38.162 33.5531C38.0254 33.6442 37.9343 33.7809 37.9343 33.9403C37.9343 34.0769 37.9797 34.1908 38.0708 34.2819C38.1619 34.3502 38.3213 34.4185 38.5263 34.464L39.5284 34.6462C39.9155 34.7145 40.2343 34.874 40.4393 35.1017C40.6442 35.3294 40.7581 35.6255 40.7581 35.967C40.8264 36.4225 40.6442 36.7641 40.3026 37.0374Z" fill="#1C2B33"></path><path d="M41.6901 31.9592C41.5762 31.8453 41.5078 31.6859 41.5078 31.5265C41.5078 31.3443 41.5762 31.2077 41.6901 31.0938C41.8039 30.9799 41.9633 30.9116 42.1455 30.9116C42.3277 30.9116 42.4871 30.9799 42.601 31.0938C42.7148 31.2077 42.7831 31.3671 42.7831 31.5265C42.7831 31.7087 42.7148 31.8453 42.601 31.9592C42.4871 32.073 42.3277 32.1414 42.1455 32.1414C41.9633 32.1186 41.8039 32.073 41.6901 31.9592ZM41.6673 32.7334H42.6237V37.3108H41.6673V32.7334Z" fill="#1C2B33"></path><path d="M43.6719 32.734H44.6056V33.3944C44.9699 32.8706 45.4482 32.6201 46.0858 32.6201C46.6324 32.6201 47.0423 32.7795 47.3383 33.1211C47.6344 33.4627 47.771 33.9409 47.771 34.5786V37.3113H46.8146V34.6924C46.8146 34.2598 46.7463 33.9409 46.5869 33.7588C46.4274 33.5538 46.1997 33.4627 45.8809 33.4627C45.6076 33.4627 45.357 33.531 45.1293 33.6904C44.9016 33.8498 44.7422 34.032 44.6284 34.3053V37.3341H43.6719V32.734Z" fill="#1C2B33"></path><path d="M50.8462 37.4244C50.3907 37.4244 49.9809 37.3333 49.6393 37.1283C49.2977 36.9234 49.0244 36.6501 48.8194 36.2857C48.6145 35.9214 48.5234 35.5115 48.5234 35.056C48.5234 34.5778 48.6145 34.1679 48.8194 33.8035C49.0016 33.4391 49.2749 33.1659 49.6165 32.9609C49.9581 32.756 50.3452 32.6421 50.7779 32.6421C51.2106 32.6421 51.5977 32.756 51.8938 32.9609C52.2126 33.1659 52.4404 33.4619 52.6225 33.8263C52.8047 34.1906 52.8729 34.6233 52.8729 35.1243V35.3976H49.5026C49.5709 35.762 49.7076 36.058 49.9581 36.2857C50.2086 36.4907 50.5046 36.6046 50.869 36.6046C51.165 36.6046 51.4155 36.559 51.6432 36.4679C51.8482 36.3768 52.0532 36.2402 52.2354 36.058L52.7591 36.6957C52.2581 37.1739 51.6205 37.4244 50.8462 37.4244ZM51.575 33.7807C51.37 33.5758 51.0967 33.4619 50.7551 33.4619C50.4363 33.4619 50.163 33.5758 49.9353 33.7807C49.7076 34.0085 49.571 34.2817 49.5254 34.6461H51.9394C51.8938 34.2817 51.7799 33.9857 51.575 33.7807Z" fill="#1C2B33"></path><path d="M56.8104 37.0374C56.4689 37.2879 56.0134 37.4245 55.4441 37.4245C54.9659 37.4245 54.5332 37.3334 54.1916 37.174C53.8272 37.0146 53.5767 36.7869 53.3945 36.4908L54.0321 35.9215C54.1688 36.1265 54.3509 36.2859 54.5786 36.3997C54.8064 36.5136 55.1025 36.5819 55.4213 36.5819C56.0362 36.5819 56.3322 36.3997 56.3322 36.0354C56.3322 35.876 56.2866 35.7621 56.1727 35.671C56.0817 35.5799 55.8995 35.5116 55.6718 35.466L54.7837 35.3066C54.3738 35.2383 54.0549 35.0789 53.8272 34.874C53.5995 34.669 53.5084 34.3729 53.5084 34.0086C53.5084 33.5759 53.6677 33.2343 54.0093 32.9838C54.3509 32.7333 54.8064 32.5967 55.3757 32.5967C55.7856 32.5967 56.1728 32.6878 56.4917 32.8472C56.8105 33.0066 57.0609 33.2343 57.2431 33.5076L56.5827 34.0086C56.4689 33.8264 56.3094 33.6898 56.0817 33.5759C55.8539 33.462 55.6035 33.4165 55.3074 33.4165C55.0341 33.4165 54.8292 33.462 54.6698 33.5531C54.5332 33.6442 54.4421 33.7809 54.4421 33.9403C54.4421 34.0769 54.4876 34.1908 54.5786 34.2819C54.6697 34.3502 54.8291 34.4185 55.0341 34.464L56.0362 34.6462C56.4233 34.7145 56.7422 34.874 56.9471 35.1017C57.1521 35.3294 57.2659 35.6255 57.2659 35.967C57.3114 36.4225 57.152 36.7641 56.8104 37.0374Z" fill="#1C2B33"></path><path d="M61.2987 37.0374C60.9571 37.2879 60.5017 37.4245 59.9324 37.4245C59.4541 37.4245 59.0215 37.3334 58.6799 37.174C58.3155 37.0146 58.065 36.7869 57.8828 36.4908L58.5205 35.9215C58.6572 36.1265 58.8393 36.2859 59.067 36.3997C59.2948 36.5136 59.5909 36.5819 59.9097 36.5819C60.5245 36.5819 60.8206 36.3997 60.8206 36.0354C60.8206 35.876 60.775 35.7621 60.6611 35.671C60.57 35.5799 60.3878 35.5116 60.1601 35.466L59.272 35.3066C58.8621 35.2383 58.5433 35.0789 58.3156 34.874C58.0879 34.6462 57.9967 34.3729 57.9967 34.0086C57.9967 33.5759 58.1561 33.2343 58.4977 32.9838C58.8393 32.7333 59.2948 32.5967 59.8641 32.5967C60.274 32.5967 60.6611 32.6878 60.9799 32.8472C61.3215 33.0294 61.5493 33.2343 61.7315 33.5076L61.071 34.0086C60.9571 33.8264 60.7978 33.6898 60.5701 33.5759C60.3423 33.462 60.0919 33.4165 59.7958 33.4165C59.5225 33.4165 59.3175 33.462 59.1581 33.5531C59.0215 33.6442 58.9304 33.7809 58.9304 33.9403C58.9304 34.0769 58.9759 34.1908 59.067 34.2819C59.1581 34.3502 59.3175 34.4185 59.5225 34.464L60.5245 34.6462C60.9116 34.7145 61.2304 34.874 61.4354 35.1017C61.6403 35.3294 61.7542 35.6255 61.7542 35.967C61.7997 36.4225 61.6403 36.7641 61.2987 37.0374Z" fill="#1C2B33"></path><path d="M63.8477 31.1621H66.1705C66.9448 31.1621 67.5597 31.3443 67.9923 31.6859C68.425 32.0503 68.6299 32.5512 68.6299 33.2117C68.6299 33.8721 68.425 34.3731 67.9923 34.7374C67.5597 35.1018 66.9676 35.284 66.1705 35.284H64.8496V37.3108H63.8477V31.1621ZM66.0793 34.3731C66.6031 34.3731 66.9675 34.282 67.218 34.077C67.4685 33.8949 67.5824 33.5988 67.5824 33.2117C67.5824 32.8017 67.4685 32.5057 67.218 32.3235C66.9675 32.1413 66.5803 32.0503 66.0793 32.0503H64.8268V34.3731H66.0793Z" fill="#1C2B33"></path><path d="M73.5044 37.3113H72.5707V36.6737C72.4113 36.9242 72.1836 37.1064 71.9331 37.2202C71.6826 37.3341 71.3866 37.4252 71.045 37.4252C70.6351 37.4252 70.2935 37.3113 69.9746 37.1064C69.6558 36.9014 69.4282 36.6054 69.246 36.2638C69.0638 35.8994 68.9727 35.4895 68.9727 35.034C68.9727 34.5558 69.0638 34.1459 69.246 33.7815C69.4282 33.4172 69.6786 33.1439 69.9974 32.9389C70.3162 32.734 70.6806 32.6201 71.1133 32.6201C71.4321 32.6201 71.7054 32.6884 71.9559 32.8023C72.2064 32.9162 72.4113 33.0983 72.5707 33.3261V32.734H73.5044V37.3113ZM72.548 34.3281C72.4342 34.0776 72.2747 33.8726 72.0698 33.7132C71.842 33.5538 71.5916 33.4855 71.2955 33.4855C70.8856 33.4855 70.5667 33.6221 70.3162 33.8954C70.0657 34.1687 69.9518 34.533 69.9518 35.0113C69.9518 35.4895 70.0657 35.8539 70.2934 36.1271C70.5212 36.4004 70.84 36.537 71.2499 36.537C71.546 36.537 71.8193 36.4687 72.047 36.3093C72.2747 36.1499 72.4342 35.9449 72.548 35.6944V34.3281Z" fill="#1C2B33"></path><path d="M74.4837 32.7334H75.4173V33.4165C75.6906 32.9155 76.0777 32.665 76.556 32.665C76.6471 32.665 76.7382 32.665 76.8293 32.6878V33.5759C76.7382 33.5759 76.6244 33.5532 76.5333 33.5532C75.9867 33.5532 75.5995 33.8264 75.4173 34.3502V37.2879H74.4609V32.7334H74.4837Z" fill="#1C2B33"></path><path d="M78.0354 33.5301H77.375V32.7103H78.0354V31.3667H78.9919V32.7103H80.381V33.5301H78.9919V35.5797C78.9919 35.9213 79.0602 36.1718 79.174 36.3084C79.2879 36.445 79.4929 36.5361 79.7661 36.5361C79.9028 36.5361 79.9938 36.5361 80.0849 36.5133C80.176 36.5133 80.2672 36.4906 80.381 36.4678V37.2649C80.2672 37.2876 80.1533 37.3332 80.0167 37.3332C79.88 37.3559 79.7434 37.3559 79.584 37.3559C78.5592 37.3559 78.0354 36.7866 78.0354 35.6708V33.5301Z" fill="#1C2B33"></path><path d="M81.1562 32.734H82.09V33.3944C82.4543 32.8706 82.9325 32.6201 83.5702 32.6201C84.1167 32.6201 84.5266 32.7795 84.8227 33.1211C85.1187 33.4627 85.2553 33.9409 85.2553 34.5786V37.3113H84.2988V34.6924C84.2988 34.2598 84.2305 33.9409 84.0711 33.7588C83.9117 33.5538 83.6841 33.4627 83.3653 33.4627C83.092 33.4627 82.8414 33.531 82.6137 33.6904C82.386 33.8498 82.2266 34.032 82.1128 34.3053V37.3341H81.1562V32.734Z" fill="#1C2B33"></path><path d="M88.3307 37.4244C87.8752 37.4244 87.4654 37.3333 87.1238 37.1283C86.7822 36.9234 86.5089 36.6501 86.3039 36.2857C86.099 35.9214 86.0078 35.5115 86.0078 35.056C86.0078 34.5778 86.099 34.1679 86.3039 33.8035C86.4861 33.4391 86.7594 33.1659 87.101 32.9609C87.4426 32.756 87.8297 32.6421 88.2624 32.6421C88.6951 32.6421 89.0822 32.756 89.3782 32.9609C89.6971 33.1659 89.9247 33.4619 90.1069 33.8263C90.2891 34.1906 90.3574 34.6233 90.3574 35.1243V35.3976H86.9871C87.0554 35.762 87.1921 36.058 87.4426 36.2857C87.6931 36.4907 87.9891 36.6046 88.3535 36.6046C88.6495 36.6046 88.9 36.559 89.1277 36.4679C89.3327 36.3768 89.5377 36.2402 89.7198 36.058L90.2436 36.6957C89.7198 37.1739 89.0822 37.4244 88.3307 37.4244ZM89.0595 33.7807C88.8545 33.5758 88.5812 33.4619 88.2396 33.4619C87.9208 33.4619 87.6475 33.5758 87.4198 33.7807C87.192 34.0085 87.0554 34.2817 87.0099 34.6461H89.4237C89.3782 34.2817 89.2644 33.9857 89.0595 33.7807Z" fill="#1C2B33"></path><path d="M91.1758 32.7334H92.1095V33.4393C92.4055 32.9155 92.8154 32.665 93.3164 32.665C93.4758 32.665 93.6125 32.6878 93.7264 32.7106V33.5987C93.5897 33.5759 93.4302 33.5759 93.2936 33.5759C92.7243 33.5759 92.3372 33.8264 92.1323 34.3502V37.3335H91.1758V32.7334Z" fill="#1C2B33"></path><path d="M51.0267 11.0762H53.5772L57.904 18.91L62.2308 11.0762H64.713V23.9428H62.6408V14.0822L58.8377 20.914H56.8792L53.0763 14.0822V23.9428H51.0039V11.0762H51.0267Z" fill="#1C2B33"></path><path d="M71.4093 24.1712C70.4528 24.1712 69.6102 23.9663 68.8815 23.5336C68.1527 23.1009 67.5834 22.5088 67.1735 21.7573C66.7636 21.0058 66.5586 20.1404 66.5586 19.1612C66.5586 18.182 66.7636 17.2938 67.1507 16.5423C67.5378 15.7908 68.1071 15.1987 68.8131 14.7661C69.519 14.3334 70.3389 14.1284 71.2498 14.1284C72.1607 14.1284 72.9577 14.3334 73.6182 14.7661C74.2786 15.1987 74.7796 15.8136 75.144 16.5879C75.5083 17.3621 75.6677 18.2731 75.6677 19.3206V19.8899H68.6081C68.7448 20.6642 69.0636 21.3018 69.5646 21.7345C70.0656 22.19 70.7033 22.4177 71.4775 22.4177C72.0924 22.4177 72.6389 22.3266 73.0716 22.1444C73.5271 21.9623 73.937 21.689 74.3241 21.3018L75.4172 22.6454C74.3469 23.6702 73.0034 24.1712 71.4093 24.1712ZM72.935 16.5423C72.5023 16.1097 71.933 15.8819 71.227 15.8819C70.5438 15.8819 69.9745 16.1097 69.4963 16.5651C69.0408 17.0206 68.7448 17.6354 68.6081 18.3869H73.6637C73.6182 17.6127 73.3677 16.9978 72.935 16.5423Z" fill="#1C2B33"></path><path d="M78.1941 16.0637H76.2812V14.3557H78.1941V11.5547H80.1981V14.3557H83.1131V16.0637H80.1981V20.3678C80.1981 21.0737 80.312 21.5975 80.5625 21.8935C80.813 22.1896 81.2229 22.349 81.815 22.349C82.0883 22.349 82.2932 22.349 82.4754 22.3262C82.6576 22.3034 82.8626 22.2807 83.0903 22.2351V23.9203C82.8626 23.9886 82.6121 24.0342 82.316 24.0797C82.02 24.1253 81.724 24.148 81.4279 24.148C79.2645 24.148 78.1941 22.9638 78.1941 20.5955V16.0637Z" fill="#1C2B33"></path><path d="M93.5424 23.9432H91.5839V22.5996C91.2423 23.1006 90.7869 23.4877 90.2404 23.761C89.6938 24.0342 89.0789 24.1709 88.3957 24.1709C87.5532 24.1709 86.8017 23.9659 86.1413 23.5332C85.4809 23.1006 84.9799 22.5085 84.5928 21.757C84.2284 21.0055 84.0234 20.1401 84.0234 19.1609C84.0234 18.1817 84.2056 17.3163 84.5928 16.5648C84.9799 15.8133 85.5036 15.2212 86.1641 14.7885C86.8245 14.3558 87.5988 14.1509 88.4869 14.1509C89.1473 14.1509 89.7394 14.2875 90.2404 14.538C90.7414 14.7885 91.1969 15.1529 91.5385 15.6083V14.3786H93.4969L93.5424 23.9432ZM91.5385 17.7262C91.3335 17.1796 90.9919 16.747 90.5137 16.4282C90.0582 16.1093 89.5117 15.9499 88.9196 15.9499C88.0542 15.9499 87.371 16.246 86.87 16.8153C86.369 17.3846 86.1185 18.1589 86.1185 19.1381C86.1185 20.1173 86.369 20.9144 86.8472 21.4837C87.3482 22.053 88.0086 22.3491 88.8512 22.3491C89.4661 22.3491 90.0127 22.1897 90.5137 21.8708C90.9919 21.552 91.3563 21.1193 91.5612 20.5728L91.5385 17.7262Z" fill="#1C2B33"></path><defs><linearGradient id="paint0_linear_5726_46506" x1="37.8111" y1="17.546" x2="33.2276" y2="11.5307" gradientUnits="userSpaceOnUse"><stop offset="0.0006" stop-color="#0867DF"></stop><stop offset="0.4539" stop-color="#0668E1"></stop><stop offset="0.8591" stop-color="#0064E0"></stop></linearGradient><linearGradient id="paint1_linear_5726_46506" x1="28.8798" y1="13.6518" x2="32.0247" y2="11.2605" gradientUnits="userSpaceOnUse"><stop offset="0.1323" stop-color="#0064DF"></stop><stop offset="0.9988" stop-color="#0064E0"></stop></linearGradient><linearGradient id="paint2_linear_5726_46506" x1="27.5437" y1="17.1512" x2="28.8033" y2="13.9755" gradientUnits="userSpaceOnUse"><stop offset="0.0147" stop-color="#0072EC"></stop><stop offset="0.6881" stop-color="#0064DF"></stop></linearGradient><linearGradient id="paint3_linear_5726_46506" x1="27.3721" y1="19.4451" x2="27.5178" y2="17.5064" gradientUnits="userSpaceOnUse"><stop offset="0.0731" stop-color="#007CF6"></stop><stop offset="0.9943" stop-color="#0072EC"></stop></linearGradient><linearGradient id="paint4_linear_5726_46506" x1="27.4531" y1="20.4974" x2="27.3488" y2="19.7206" gradientUnits="userSpaceOnUse"><stop offset="0.0731" stop-color="#007FF9"></stop><stop offset="1" stop-color="#007CF6"></stop></linearGradient><linearGradient id="paint5_linear_5726_46506" x1="27.3916" y1="20.7011" x2="28.0414" y2="22.0815" gradientUnits="userSpaceOnUse"><stop offset="0.0731" stop-color="#007FF9"></stop><stop offset="1" stop-color="#0082FB"></stop></linearGradient><linearGradient id="paint6_linear_5726_46506" x1="37.4037" y1="14.0266" x2="38.2632" y2="12.836" gradientUnits="userSpaceOnUse"><stop offset="0.2799" stop-color="#007FF8"></stop><stop offset="0.9141" stop-color="#0082FB"></stop></linearGradient><linearGradient id="paint7_linear_5726_46506" x1="43.9541" y1="12.4839" x2="45.7505" y2="19.1028" gradientUnits="userSpaceOnUse"><stop stop-color="#0082FB"></stop><stop offset="0.9995" stop-color="#0081FA"></stop></linearGradient><linearGradient id="paint8_linear_5726_46506" x1="46.187" y1="19.3538" x2="45.0497" y2="21.6559" gradientUnits="userSpaceOnUse"><stop offset="0.0619" stop-color="#0081FA"></stop><stop offset="1" stop-color="#0080F9"></stop></linearGradient><linearGradient id="paint9_linear_5726_46506" x1="44.1436" y1="22.8768" x2="45.2084" y2="22.1505" gradientUnits="userSpaceOnUse"><stop stop-color="#027AF3"></stop><stop offset="1" stop-color="#0080F9"></stop></linearGradient><linearGradient id="paint10_linear_5726_46506" x1="42.4717" y1="23.0173" x2="43.9529" y2="23.0173" gradientUnits="userSpaceOnUse"><stop stop-color="#0377EF"></stop><stop offset="0.9994" stop-color="#0279F1"></stop></linearGradient><linearGradient id="paint11_linear_5726_46506" x1="41.1841" y1="22.2028" x2="42.2481" y2="22.8297" gradientUnits="userSpaceOnUse"><stop offset="0.0019" stop-color="#0471E9"></stop><stop offset="1" stop-color="#0377EF"></stop></linearGradient><linearGradient id="paint12_linear_5726_46506" x1="37.9371" y1="17.588" x2="41.3416" y2="21.8753" gradientUnits="userSpaceOnUse"><stop offset="0.2765" stop-color="#0867DF"></stop><stop offset="1" stop-color="#0471E9"></stop></linearGradient></defs></svg>